# 3ds Max Wavefront OBJ Exporter v0.97b - (c)2007 guruware
# File Created: 13.02.2019 18:47:31

mtllib CJ_MINICAMB.mtl

#
# object CJ_MINICAMB_L0_object
#

v  -0.0240 -0.1221 -0.0424
v  -0.0240 -0.1221 0.0040
v  -0.0240 0.0379 0.0040
v  -0.0240 0.0379 -0.0424
v  0.0142 -0.1221 -0.0424
v  0.0142 0.0379 -0.0424
v  0.0142 0.0379 0.0040
v  0.0142 -0.1221 0.0040
v  -0.0240 -0.0887 -0.3310
v  -0.0240 -0.1351 -0.3310
v  -0.0240 -0.1351 -0.0314
v  -0.0240 -0.0887 -0.0314
v  0.0142 -0.0887 -0.3310
v  0.0142 -0.0887 -0.0314
v  0.0142 -0.1351 -0.0314
v  0.0142 -0.1351 -0.3310
v  -0.0485 -0.1135 -0.0783
v  -0.0485 -0.1737 -0.0181
v  -0.0485 -0.1130 0.0425
v  -0.0485 -0.0528 -0.0177
v  0.0373 -0.1135 -0.0783
v  0.0373 -0.0528 -0.0177
v  0.0373 -0.1130 0.0425
v  0.0373 -0.1737 -0.0181
v  -0.0485 0.0605 -0.0783
v  -0.0485 -0.0208 -0.0181
v  -0.0485 0.0399 0.0425
v  0.0373 0.0399 0.0425
v  0.0373 -0.0208 -0.0181
v  0.0373 0.0605 -0.0783
v  0.1917 -0.1068 -0.3559
v  0.1356 0.0288 -0.3559
v  0.1356 0.0288 -0.3181
v  0.1917 -0.1068 -0.3181
v  -0.0000 0.0849 -0.3559
v  -0.0000 0.0849 -0.3181
v  -0.1356 0.0288 -0.3559
v  -0.1356 0.0288 -0.3181
v  -0.1917 -0.1068 -0.3559
v  -0.1917 -0.1068 -0.3181
v  -0.1356 -0.2424 -0.3559
v  -0.1356 -0.2424 -0.3181
v  0.0000 -0.2985 -0.3559
v  0.0000 -0.2985 -0.3181
v  0.1356 -0.2424 -0.3559
v  0.1356 -0.2424 -0.3181
v  -0.0399 0.0301 0.1262
v  -0.0399 -0.0158 0.3330
v  -0.0787 0.0195 0.3408
v  -0.0787 0.0654 0.1340
v  -0.0888 0.0703 0.3521
v  -0.0888 0.1162 0.1453
v  -0.0664 0.1172 0.3625
v  -0.0664 0.1631 0.1557
v  -0.0201 0.1423 0.3680
v  -0.0201 0.1882 0.1613
v  0.0326 0.1360 0.3667
v  0.0326 0.1819 0.1599
v  0.0713 0.1007 0.3588
v  0.0713 0.1466 0.1520
v  0.0814 0.0499 0.3476
v  0.0814 0.0958 0.1408
v  0.0590 0.0030 0.3372
v  0.0590 0.0489 0.1304
v  0.0127 -0.0221 0.3316
v  0.0127 0.0238 0.1248
v  -0.0974 0.2001 0.1736
v  -0.0974 0.0078 0.1310
v  0.0910 0.0078 0.1310
v  0.0910 0.2001 0.1736
v  0.1434 0.0273 0.1353
v  0.1434 0.1806 0.1693
v  -0.1497 0.0273 0.1353
v  -0.1497 0.1806 0.1693
v  -0.1497 0.1114 -0.2441
v  -0.1497 0.2647 -0.2101
v  0.0910 0.0919 -0.2484
v  -0.0974 0.0919 -0.2484
v  0.1434 0.2647 -0.2101
v  0.1434 0.1114 -0.2441
v  -0.0974 0.2842 -0.2058
v  0.0910 0.2842 -0.2058
v  0.1153 0.1258 0.1693
v  0.1484 0.1585 0.1751
v  0.1153 0.1585 0.1751
v  0.1484 0.1258 0.1693
v  0.1153 0.1911 0.1809
v  0.1484 0.1911 0.1809
v  0.0821 0.1258 0.1693
v  0.0821 0.1585 0.1751
v  0.0821 0.1911 0.1809
# 91 vertices

vn -0.7616 -0.0000 -0.6480
vn -1.0000 -0.0000 -0.0000
vn -0.7071 -0.0000 0.7071
vn -1.0000 0.0000 -0.0000
vn 0.7071 -0.0000 -0.7071
vn 0.9890 -0.0000 -0.1476
vn 0.7071 -0.0000 0.7071
vn 0.0000 0.0000 1.0000
vn -0.0000 0.0000 -1.0000
vn -0.7362 0.6768 0.0000
vn -0.7071 -0.7071 0.0000
vn -1.0000 0.0000 0.0000
vn 0.7071 0.7071 0.0000
vn 0.9968 0.0804 -0.0000
vn 0.7071 -0.7071 -0.0000
vn 0.0000 1.0000 0.0000
vn -0.5774 -0.0000 -0.8165
vn -0.5774 -0.8165 0.0000
vn -0.5774 0.0000 0.8165
vn -0.5774 0.8165 -0.0000
vn 0.5774 -0.0000 -0.8165
vn 0.5774 0.8165 -0.0000
vn 0.5774 0.0000 0.8165
vn 0.5774 -0.8165 0.0000
vn -0.5700 -0.8194 -0.0606
vn -0.7720 -0.4494 0.4494
vn 0.5191 -0.6044 0.6044
vn 0.5700 -0.8194 -0.0606
vn 0.4377 -0.5353 -0.7224
vn -0.0000 -0.7071 0.7071
vn -0.0000 -0.5953 -0.8035
vn 1.0000 0.0000 0.0000
vn 0.5490 0.5490 0.6303
vn 0.7764 0.0000 0.6303
vn -0.0000 1.0000 0.0000
vn -0.0000 0.7764 0.6303
vn -0.7071 0.7071 -0.0000
vn -0.5490 0.5490 0.6303
vn -0.7764 -0.0000 0.6303
vn -0.7071 -0.7071 -0.0000
vn -0.5490 -0.5490 0.6303
vn 0.0000 -1.0000 -0.0000
vn 0.0000 -0.7764 0.6303
vn 0.7071 -0.7071 0.0000
vn 0.5490 -0.5490 0.6303
vn -0.4226 -0.8848 -0.1962
vn -0.3234 -0.8165 0.4783
vn -0.6693 -0.5015 0.5482
vn -0.8746 -0.4733 -0.1049
vn -0.7596 -0.0483 0.6486
vn -0.9925 0.1190 0.0264
vn -0.5597 0.3702 0.7414
vn -0.8690 0.4831 0.1071
vn -0.1460 0.5941 0.7910
vn -0.1908 0.9584 0.2125
vn -0.4848 0.8539 0.1893
vn 0.3234 0.5378 0.7786
vn 0.4226 0.8848 0.1962
vn 0.6693 0.2229 0.7088
vn 0.8746 0.4733 0.1049
vn 0.7596 -0.2304 0.6083
vn 0.9925 -0.1190 -0.0264
vn 0.5597 -0.6489 0.5155
vn 0.7314 -0.6658 -0.1476
vn 0.1460 -0.8727 0.4659
vn 0.1908 -0.9584 -0.2125
vn -0.1347 0.5694 0.8110
vn -0.1347 -0.8588 0.4944
vn 0.1347 -0.8588 0.4944
vn 0.1347 0.5694 0.8110
vn 0.6594 -0.5732 0.4864
vn 0.6594 0.3139 0.6831
vn -0.6594 -0.5732 0.4864
vn -0.6594 0.3139 0.6831
vn -0.6594 -0.3139 -0.6831
vn -0.6594 0.5732 -0.4864
vn 0.1347 -0.5694 -0.8110
vn -0.1347 -0.5694 -0.8110
vn 0.6594 0.5732 -0.4864
vn 0.6594 -0.3139 -0.6831
vn -0.1347 0.8588 -0.4944
vn 0.1347 0.8588 -0.4944
vn 0.0000 -0.1736 0.9848
vn -0.0000 -0.1736 0.9848
# 84 vertex normals

vt 0.4261 0.6380 0.0000
vt 0.4261 0.4967 0.0000
vt 0.5979 0.4967 0.0000
vt 0.5979 0.6380 0.0000
vt 0.5712 0.5294 0.0000
vt 0.5371 0.5294 0.0000
vt 0.5027 0.5294 0.0000
vt 0.5367 0.5294 0.0000
vt 0.5712 0.6663 0.0000
vt 0.5367 0.6663 0.0000
vt 0.5027 0.6663 0.0000
vt 0.5371 0.6663 0.0000
vt 0.4686 0.6663 0.0000
vt 0.4341 0.6663 0.0000
vt 0.4341 0.5294 0.0000
vt 0.4686 0.5294 0.0000
vt 0.1244 0.1234 0.0000
vt 0.1244 -0.1234 0.0000
vt -0.1244 -0.1234 0.0000
vt 0.5440 0.1477 0.0000
vt 0.5144 0.2191 0.0000
vt 0.4430 0.2487 0.0000
vt 0.3716 0.2191 0.0000
vt 0.3420 0.1477 0.0000
vt 0.3716 0.0762 0.0000
vt 0.4430 0.0467 0.0000
vt 0.5144 0.0762 0.0000
vt 0.0068 -0.0015 0.0000
vt 0.8707 -0.0015 0.0000
vt 0.8707 0.0948 0.0000
vt 0.0068 0.0948 0.0000
vt 0.8707 0.1961 0.0000
vt 0.0068 0.1961 0.0000
vt 0.8707 0.3009 0.0000
vt 0.0068 0.3009 0.0000
vt 0.8707 0.4023 0.0000
vt 0.0068 0.4023 0.0000
vt 0.8707 0.4985 0.0000
vt 0.0068 0.4985 0.0000
vt 0.8707 0.5948 0.0000
vt 0.0068 0.5948 0.0000
vt 0.8707 0.6961 0.0000
vt 0.0068 0.6961 0.0000
vt 0.8707 0.8009 0.0000
vt 0.0068 0.8009 0.0000
vt 0.8707 0.9023 0.0000
vt 0.0068 0.9023 0.0000
vt 0.8707 0.9985 0.0000
vt 0.0068 0.9985 0.0000
vt 0.1790 0.9995 0.0000
vt 0.1790 0.0005 0.0000
vt 0.8210 0.0005 0.0000
vt 0.8210 0.9995 0.0000
vt 0.9995 0.1018 0.0000
vt 0.9995 0.8982 0.0000
vt 0.0005 0.1018 0.0000
vt 0.0005 0.8982 0.0000
vt 0.0005 0.1301 0.0000
vt 0.9995 0.1301 0.0000
vt 0.9995 0.8699 0.0000
vt 0.0005 0.8699 0.0000
vt 0.0005 1.0806 0.0000
vt 0.1790 1.9990 0.0000
vt 0.1790 0.0235 0.0000
vt 0.0005 0.0010 0.0000
vt 0.0005 1.9765 0.0000
vt 0.9995 1.9765 0.0000
vt 0.9995 0.0010 0.0000
vt 0.8210 0.0235 0.0000
vt 0.8210 1.9990 0.0000
vt 0.9995 -0.0806 0.0000
vt 0.5001 0.7862 0.0000
vt 0.5430 0.7433 0.0000
vt 0.5430 0.7862 0.0000
vt 0.5001 0.7433 0.0000
vt 0.5859 0.7862 0.0000
vt 0.5859 0.7433 0.0000
vt 0.5001 0.8291 0.0000
vt 0.5430 0.8291 0.0000
vt 0.5859 0.8291 0.0000
vt 0.3099 0.0684 0.0000
vt 0.0396 0.5614 0.0000
vt 0.0955 0.2705 0.0000
vt 0.1635 0.8299 0.0000
vt 0.4198 0.9736 0.0000
vt 0.7107 0.9375 0.0000
vt 0.9251 0.7354 0.0000
vt 0.9810 0.4445 0.0000
vt 0.8571 0.1759 0.0000
vt 0.6008 0.0322 0.0000
# 90 texture coords

g CJ_MINICAMB_L0_object
usemtl CJ_MINICAMB_L0_object_MatID1
s 1
f 1/1/1 2/2/2 3/3/3 
s 2
f 3/3/3 4/4/4 1/1/1 
s 3
f 5/4/5 6/1/6 7/2/7 
s 4
f 7/2/7 8/3/7 5/4/5 
s 5
f 8/4/7 7/1/7 3/2/3 
s 6
f 3/2/3 2/3/8 8/4/7 
s 7
f 6/4/6 5/1/5 1/2/1 
s 8
f 1/2/9 4/3/9 6/4/9 
s 9
f 9/1/10 10/2/11 11/3/11 
s 10
f 11/3/11 12/4/12 9/1/10 
s 11
f 13/4/13 14/1/14 15/2/15 
s 12
f 15/2/15 16/3/15 13/4/13 
s 13
f 16/4/15 15/1/15 11/2/11 
s 14
f 11/2/11 10/3/11 16/4/15 
s 15
f 14/4/14 13/1/13 9/2/10 
s 16
f 9/2/16 12/3/16 14/4/16 
s 17
f 17/5/17 18/6/18 19/7/19 
s 18
f 19/7/19 20/8/20 17/5/17 
s 19
f 21/9/21 22/10/22 23/11/23 
s 20
f 23/11/23 24/12/24 21/9/21 
s 21
f 24/12/24 23/11/23 19/7/19 
s 22
f 19/7/19 18/6/18 24/12/24 
s 23
f 21/9/21 24/12/24 18/6/18 
s 24
f 18/6/18 17/5/17 21/9/21 
s 25
f 22/13/22 21/14/21 17/15/17 
s 26
f 17/15/17 20/16/20 22/13/22 
s 27
f 23/11/23 22/13/22 20/16/20 
s 28
f 20/16/20 19/7/19 23/11/23 
s 29
f 25/17/12 26/18/25 27/19/26 
s 30
f 28/19/27 29/18/28 30/17/29 
s 31
f 29/18/28 28/19/27 27/19/26 
s 32
f 27/19/30 26/18/25 29/18/28 
s 33
f 30/17/29 29/18/28 26/18/25 
s 34
f 26/18/25 25/17/31 30/17/29 
s 35
f 31/20/32 32/21/13 33/21/33 
s 36
f 33/21/33 34/20/34 31/20/32 
s 37
f 32/21/13 35/22/35 36/22/36 
s 38
f 36/22/36 33/21/33 32/21/13 
s 39
f 35/22/35 37/23/37 38/23/38 
s 40
f 38/23/38 36/22/36 35/22/35 
s 41
f 37/23/37 39/24/4 40/24/39 
s 42
f 40/24/39 38/23/38 37/23/37 
s 43
f 39/24/4 41/25/40 42/25/41 
s 44
f 42/25/41 40/24/39 39/24/4 
s 45
f 41/25/40 43/26/42 44/26/43 
s 46
f 44/26/43 42/25/41 41/25/40 
s 47
f 43/26/42 45/27/44 46/27/45 
s 48
f 46/27/45 44/26/43 43/26/42 
s 49
f 45/27/44 31/20/32 34/20/34 
s 50
f 34/20/34 46/27/45 45/27/44 
s 51
f 34/20/34 33/21/33 36/22/36 
s 52
f 36/22/36 38/23/38 40/24/39 
s 53
f 40/24/39 42/25/41 44/26/43 
s 54
f 36/22/36 40/24/39 44/26/43 
s 55
f 34/20/34 36/22/36 44/26/43 
s 56
f 46/27/45 34/20/34 44/26/43 
s 57
f 47/28/46 48/29/47 49/30/48 
s 58
f 49/30/48 50/31/49 47/28/46 
s 59
f 50/31/49 49/30/48 51/32/50 
s 60
f 51/32/50 52/33/51 50/31/49 
s 61
f 52/33/51 51/32/50 53/34/52 
s 62
f 53/34/52 54/35/53 52/33/51 
s 63
f 54/35/53 53/34/52 55/36/54 
s 64
f 55/36/54 56/37/55 54/35/56 
s 65
f 56/37/55 55/36/54 57/38/57 
s 66
f 57/38/57 58/39/58 56/37/55 
s 67
f 58/39/58 57/38/57 59/40/59 
s 68
f 59/40/59 60/41/60 58/39/58 
s 69
f 60/41/60 59/40/59 61/42/61 
s 70
f 61/42/61 62/43/62 60/41/60 
s 71
f 62/43/62 61/42/61 63/44/63 
s 72
f 63/44/63 64/45/64 62/43/62 
s 73
f 64/45/64 63/44/63 65/46/65 
s 74
f 65/46/65 66/47/66 64/45/64 
s 75
f 66/47/66 65/46/65 48/48/47 
s 76
f 48/48/47 47/49/46 66/47/66 
usemtl CJ_MINICAMB_L0_object_MatID2
s 77
f 67/50/67 68/51/68 69/52/69 
s 78
f 70/53/70 67/50/67 69/52/69 
s 79
f 69/52/69 71/54/71 72/55/72 
s 80
f 70/53/70 69/52/69 72/55/72 
s 81
f 73/56/73 68/51/68 67/50/67 
s 82
f 67/50/67 74/57/74 73/56/73 
s 83
f 75/58/75 73/59/73 74/60/74 
s 84
f 74/60/74 76/61/76 75/58/75 
s 85
f 77/58/77 69/59/69 68/60/68 
s 86
f 68/60/68 78/61/78 77/58/77 
s 87
f 79/61/79 72/60/72 71/59/71 
s 88
f 71/59/71 80/58/80 79/61/79 
s 89
f 81/61/81 67/60/67 70/59/70 
s 90
f 70/59/70 82/58/82 81/61/81 
s 91
f 76/62/76 74/57/74 67/60/67 
s 92
f 67/60/67 81/50/81 76/62/76 
s 93
f 78/63/78 68/64/68 73/65/73 
s 94
f 73/65/73 75/66/75 78/63/78 
s 95
f 78/51/78 75/56/75 77/52/77 
s 96
f 80/67/80 71/68/71 69/69/69 
s 97
f 69/69/69 77/70/77 80/67/80 
s 98
f 80/54/80 77/52/77 79/55/79 
s 99
f 79/55/79 82/58/82 70/59/70 
s 100
f 70/59/70 72/71/72 79/55/79 
s 101
f 76/57/76 81/50/81 82/53/82 
s 102
f 82/53/82 79/55/79 76/57/76 
s 103
f 75/56/75 76/57/76 79/55/79 
s 104
f 79/55/79 77/52/77 75/56/75 
s 105
f 83/72/83 84/73/83 85/74/83 
s 106
f 84/73/83 83/72/83 86/75/83 
s 107
f 85/74/83 84/73/83 87/76/83 
s 108
f 88/77/83 87/76/83 84/73/83 
s 109
f 89/78/83 83/72/83 90/79/84 
s 110
f 85/74/83 90/79/84 83/72/83 
s 111
f 90/79/84 87/76/83 91/80/83 
s 112
f 87/76/83 90/79/84 85/74/83 
usemtl CJ_MINICAMB_L0_object_MatID3
s 113
f 48/81/47 51/82/50 49/83/48 
s 114
f 53/84/52 51/82/50 55/85/54 
s 115
f 55/85/54 51/82/50 57/86/57 
s 116
f 57/86/57 51/82/50 59/87/59 
s 117
f 59/87/59 51/82/50 61/88/61 
s 118
f 61/88/61 51/82/50 63/89/63 
s 119
f 63/89/63 51/82/50 65/90/65 
s 120
f 65/90/65 51/82/50 48/81/47 
# 0 polygons - 120 triangles

